<?xml version="1.0" encoding="UTF-8"?>
<!DOCTYPE svg PUBLIC "-//W3C//DTD SVG 1.1//EN" "http://www.w3.org/Graphics/SVG/1.1/DTD/svg11.dtd">
<svg version="1.2" width="215.9mm" height="215.9mm" viewBox="0 0 21590 21590" preserveAspectRatio="xMidYMid" fill-rule="evenodd" stroke-width="28.222" stroke-linejoin="round" xmlns="http://www.w3.org/2000/svg" xmlns:ooo="http://xml.openoffice.org/svg/export" xmlns:xlink="http://www.w3.org/1999/xlink" xmlns:presentation="http://sun.com/xmlns/staroffice/presentation" xmlns:smil="http://www.w3.org/2001/SMIL20/" xmlns:anim="urn:oasis:names:tc:opendocument:xmlns:animation:1.0" xml:space="preserve">
 <defs class="ClipPathGroup">
  <clipPath id="presentation_clip_path" clipPathUnits="userSpaceOnUse">
   <rect x="0" y="0" width="21590" height="21590"/>
  </clipPath>
  <clipPath id="presentation_clip_path_shrink" clipPathUnits="userSpaceOnUse">
   <rect x="21" y="21" width="21547" height="21547"/>
  </clipPath>
 </defs>
 <defs class="TextShapeIndex">
  <g ooo:slide="id1" ooo:id-list="id3 id4 id5 id6 id7 id8 id9 id10 id11 id12 id13 id14 id15 id16 id17 id18 id19 id20 id21 id22 id23 id24 id25 id26 id27 id28 id29 id30 id31 id32 id33"/>
 </defs>
 <defs class="EmbeddedBulletChars">
  <g id="bullet-char-template-57356" transform="scale(0.00048828125,-0.00048828125)">
   <path d="M 580,1141 L 1163,571 580,0 -4,571 580,1141 Z"/>
  </g>
  <g id="bullet-char-template-57354" transform="scale(0.00048828125,-0.00048828125)">
   <path d="M 8,1128 L 1137,1128 1137,0 8,0 8,1128 Z"/>
  </g>
  <g id="bullet-char-template-10146" transform="scale(0.00048828125,-0.00048828125)">
   <path d="M 174,0 L 602,739 174,1481 1456,739 174,0 Z M 1358,739 L 309,1346 659,739 1358,739 Z"/>
  </g>
  <g id="bullet-char-template-10132" transform="scale(0.00048828125,-0.00048828125)">
   <path d="M 2015,739 L 1276,0 717,0 1260,543 174,543 174,936 1260,936 717,1481 1274,1481 2015,739 Z"/>
  </g>
  <g id="bullet-char-template-10007" transform="scale(0.00048828125,-0.00048828125)">
   <path d="M 0,-2 C -7,14 -16,27 -25,37 L 356,567 C 262,823 215,952 215,954 215,979 228,992 255,992 264,992 276,990 289,987 310,991 331,999 354,1012 L 381,999 492,748 772,1049 836,1024 860,1049 C 881,1039 901,1025 922,1006 886,937 835,863 770,784 769,783 710,716 594,584 L 774,223 C 774,196 753,168 711,139 L 727,119 C 717,90 699,76 672,76 641,76 570,178 457,381 L 164,-76 C 142,-110 111,-127 72,-127 30,-127 9,-110 8,-76 1,-67 -2,-52 -2,-32 -2,-23 -1,-13 0,-2 Z"/>
  </g>
  <g id="bullet-char-template-10004" transform="scale(0.00048828125,-0.00048828125)">
   <path d="M 285,-33 C 182,-33 111,30 74,156 52,228 41,333 41,471 41,549 55,616 82,672 116,743 169,778 240,778 293,778 328,747 346,684 L 369,508 C 377,444 397,411 428,410 L 1163,1116 C 1174,1127 1196,1133 1229,1133 1271,1133 1292,1118 1292,1087 L 1292,965 C 1292,929 1282,901 1262,881 L 442,47 C 390,-6 338,-33 285,-33 Z"/>
  </g>
  <g id="bullet-char-template-9679" transform="scale(0.00048828125,-0.00048828125)">
   <path d="M 813,0 C 632,0 489,54 383,161 276,268 223,411 223,592 223,773 276,916 383,1023 489,1130 632,1184 813,1184 992,1184 1136,1130 1245,1023 1353,916 1407,772 1407,592 1407,412 1353,268 1245,161 1136,54 992,0 813,0 Z"/>
  </g>
  <g id="bullet-char-template-8226" transform="scale(0.00048828125,-0.00048828125)">
   <path d="M 346,457 C 273,457 209,483 155,535 101,586 74,649 74,723 74,796 101,859 155,911 209,963 273,989 346,989 419,989 480,963 531,910 582,859 608,796 608,723 608,648 583,586 532,535 482,483 420,457 346,457 Z"/>
  </g>
  <g id="bullet-char-template-8211" transform="scale(0.00048828125,-0.00048828125)">
   <path d="M -4,459 L 1135,459 1135,606 -4,606 -4,459 Z"/>
  </g>
  <g id="bullet-char-template-61548" transform="scale(0.00048828125,-0.00048828125)">
   <path d="M 173,740 C 173,903 231,1043 346,1159 462,1274 601,1332 765,1332 928,1332 1067,1274 1183,1159 1299,1043 1357,903 1357,740 1357,577 1299,437 1183,322 1067,206 928,148 765,148 601,148 462,206 346,322 231,437 173,577 173,740 Z"/>
  </g>
 </defs>
 <g>
  <g id="id2" class="Master_Slide">
   <g id="bg-id2" class="Background"/>
   <g id="bo-id2" class="BackgroundObjects"/>
  </g>
 </g>
 <g class="SlideGroup">
  <g>
   <g id="container-id1">
    <g id="id1" class="Slide" clip-path="url(#presentation_clip_path)">
     <g class="Page">
      <g class="com.sun.star.drawing.CustomShape">
       <g id="id3">
        <rect class="BoundingBox" stroke="none" fill="none" x="-751" y="6999" width="23253" height="15003"/>
        <path fill="rgb(160,116,70)" stroke="none" d="M 10875,22000 L -750,22000 -750,7000 22500,7000 22500,22000 10875,22000 Z"/>
        <path fill="none" stroke="rgb(160,116,70)" d="M 10875,22000 L -750,22000 -750,7000 22500,7000 22500,22000 10875,22000 Z"/>
       </g>
      </g>
      <g class="com.sun.star.drawing.CustomShape">
       <g id="id4">
        <rect class="BoundingBox" stroke="none" fill="none" x="-251" y="7749" width="22254" height="12004"/>
        <path fill="rgb(191,129,158)" stroke="none" d="M 22001,13751 C 22001,14804 21487,15839 20510,16751 19534,17663 18130,18420 16438,18947 14747,19474 12828,19751 10876,19751 8923,19751 7004,19474 5313,18947 3621,18420 2217,17663 1241,16751 264,15839 -250,14804 -250,13751 -250,12697 264,11662 1241,10750 2217,9838 3621,9081 5313,8554 7004,8027 8923,7750 10875,7750 12828,7750 14747,8027 16438,8554 18130,9081 19534,9838 20510,10750 21487,11662 22001,12697 22001,13750 L 22001,13751 Z"/>
        <path fill="none" stroke="rgb(128,128,128)" d="M 22001,13751 C 22001,14804 21487,15839 20510,16751 19534,17663 18130,18420 16438,18947 14747,19474 12828,19751 10876,19751 8923,19751 7004,19474 5313,18947 3621,18420 2217,17663 1241,16751 264,15839 -250,14804 -250,13751 -250,12697 264,11662 1241,10750 2217,9838 3621,9081 5313,8554 7004,8027 8923,7750 10875,7750 12828,7750 14747,8027 16438,8554 18130,9081 19534,9838 20510,10750 21487,11662 22001,12697 22001,13750 L 22001,13751 Z"/>
       </g>
      </g>
      <g class="com.sun.star.drawing.CustomShape">
       <g id="id5">
        <rect class="BoundingBox" stroke="none" fill="none" x="2749" y="9999" width="16254" height="7504"/>
        <path fill="rgb(161,70,126)" stroke="none" d="M 19001,13750 C 19001,14409 18626,15056 17912,15626 17199,16196 16173,16669 14938,16999 13703,17328 12302,17501 10876,17501 9449,17501 8048,17328 6813,16999 5578,16669 4552,16196 3839,15626 3125,15056 2750,14409 2750,13751 2750,13092 3125,12445 3839,11875 4552,11305 5578,10832 6813,10502 8048,10173 9449,10000 10875,10000 12302,10000 13703,10173 14938,10502 16173,10832 17199,11305 17912,11875 18626,12445 19001,13092 19001,13750 L 19001,13750 Z"/>
        <path fill="none" stroke="rgb(161,70,126)" d="M 19001,13750 C 19001,14409 18626,15056 17912,15626 17199,16196 16173,16669 14938,16999 13703,17328 12302,17501 10876,17501 9449,17501 8048,17328 6813,16999 5578,16669 4552,16196 3839,15626 3125,15056 2750,14409 2750,13751 2750,13092 3125,12445 3839,11875 4552,11305 5578,10832 6813,10502 8048,10173 9449,10000 10875,10000 12302,10000 13703,10173 14938,10502 16173,10832 17199,11305 17912,11875 18626,12445 19001,13092 19001,13750 L 19001,13750 Z"/>
       </g>
      </g>
      <g class="com.sun.star.drawing.CustomShape">
       <g id="id6">
        <rect class="BoundingBox" stroke="none" fill="none" x="13249" y="10999" width="7004" height="4754"/>
        <path fill="rgb(255,255,255)" stroke="none" d="M 20251,13376 C 20251,13792 20089,14202 19782,14563 19475,14924 19033,15224 18501,15433 17969,15641 17365,15751 16751,15751 16136,15751 15532,15641 15000,15433 14468,15224 14026,14924 13719,14563 13412,14202 13250,13792 13250,13376 13250,12959 13412,12549 13719,12188 14026,11827 14468,11527 15000,11318 15532,11110 16136,11000 16751,11000 17365,11000 17969,11110 18501,11318 19033,11527 19475,11827 19782,12188 20089,12549 20251,12959 20251,13375 L 20251,13376 Z"/>
        <path fill="none" stroke="rgb(255,255,255)" d="M 20251,13376 C 20251,13792 20089,14202 19782,14563 19475,14924 19033,15224 18501,15433 17969,15641 17365,15751 16751,15751 16136,15751 15532,15641 15000,15433 14468,15224 14026,14924 13719,14563 13412,14202 13250,13792 13250,13376 13250,12959 13412,12549 13719,12188 14026,11827 14468,11527 15000,11318 15532,11110 16136,11000 16751,11000 17365,11000 17969,11110 18501,11318 19033,11527 19475,11827 19782,12188 20089,12549 20251,12959 20251,13375 L 20251,13376 Z"/>
       </g>
      </g>
      <g class="com.sun.star.drawing.CustomShape">
       <g id="id7">
        <rect class="BoundingBox" stroke="none" fill="none" x="16999" y="11999" width="2004" height="1754"/>
        <path fill="rgb(255,222,89)" stroke="none" d="M 19001,12876 C 19001,13029 18955,13180 18867,13313 18779,13446 18653,13557 18501,13634 18349,13711 18176,13751 18001,13751 17825,13751 17652,13711 17500,13634 17348,13557 17222,13446 17134,13313 17046,13180 17000,13029 17000,12876 17000,12722 17046,12571 17134,12438 17222,12305 17348,12194 17500,12117 17652,12040 17825,12000 18001,12000 18176,12000 18349,12040 18501,12117 18653,12194 18779,12305 18867,12438 18955,12571 19001,12722 19001,12875 L 19001,12876 Z"/>
        <path fill="none" stroke="rgb(255,222,89)" d="M 19001,12876 C 19001,13029 18955,13180 18867,13313 18779,13446 18653,13557 18501,13634 18349,13711 18176,13751 18001,13751 17825,13751 17652,13711 17500,13634 17348,13557 17222,13446 17134,13313 17046,13180 17000,13029 17000,12876 17000,12722 17046,12571 17134,12438 17222,12305 17348,12194 17500,12117 17652,12040 17825,12000 18001,12000 18176,12000 18349,12040 18501,12117 18653,12194 18779,12305 18867,12438 18955,12571 19001,12722 19001,12875 L 19001,12876 Z"/>
       </g>
      </g>
      <g class="com.sun.star.drawing.CustomShape">
       <g id="id8">
        <rect class="BoundingBox" stroke="none" fill="none" x="6749" y="9749" width="5003" height="503"/>
        <path fill="rgb(232,162,2)" stroke="none" d="M 9250,10250 L 6750,10250 6750,9750 11750,9750 11750,10250 9250,10250 Z"/>
        <path fill="none" stroke="rgb(232,162,2)" d="M 9250,10250 L 6750,10250 6750,9750 11750,9750 11750,10250 9250,10250 Z"/>
       </g>
      </g>
      <g class="com.sun.star.drawing.CustomShape">
       <g id="id9">
        <rect class="BoundingBox" stroke="none" fill="none" x="5477" y="8436" width="4214" height="2663"/>
        <path fill="rgb(232,162,2)" stroke="none" d="M 9567,10879 L 9445,11097 5478,8873 5723,8437 9689,10661 9567,10879 Z"/>
        <path fill="none" stroke="rgb(232,162,2)" d="M 9567,10879 L 9445,11097 5478,8873 5723,8437 9689,10661 9567,10879 Z"/>
       </g>
      </g>
      <g class="com.sun.star.drawing.CustomShape">
       <g id="id10">
        <rect class="BoundingBox" stroke="none" fill="none" x="6499" y="8998" width="3570" height="2702"/>
        <path fill="rgb(232,162,2)" stroke="none" d="M 8426,10554 L 6786,11698 6500,11288 9781,8999 10067,9409 8426,10554 Z"/>
        <path fill="none" stroke="rgb(232,162,2)" d="M 8426,10554 L 6786,11698 6500,11288 9781,8999 10067,9409 8426,10554 Z"/>
       </g>
      </g>
      <g class="com.sun.star.drawing.CustomShape">
       <g id="id11">
        <rect class="BoundingBox" stroke="none" fill="none" x="7749" y="8499" width="503" height="3253"/>
        <path fill="rgb(232,162,2)" stroke="none" d="M 8000,11750 L 7750,11750 7750,8500 8250,8500 8250,11750 8000,11750 Z"/>
        <path fill="none" stroke="rgb(232,162,2)" d="M 8000,11750 L 7750,11750 7750,8500 8250,8500 8250,11750 8000,11750 Z"/>
       </g>
      </g>
      <g class="com.sun.star.drawing.CustomShape">
       <g id="id12">
        <rect class="BoundingBox" stroke="none" fill="none" x="5301" y="10249" width="4701" height="1823"/>
        <path fill="rgb(232,162,2)" stroke="none" d="M 7580,11400 L 5302,10730 5443,10250 10000,11590 9859,12070 7580,11400 Z"/>
        <path fill="none" stroke="rgb(232,162,2)" d="M 7580,11400 L 5302,10730 5443,10250 10000,11590 9859,12070 7580,11400 Z"/>
       </g>
      </g>
      <g class="com.sun.star.drawing.CustomShape">
       <g id="id13">
        <rect class="BoundingBox" stroke="none" fill="none" x="6999" y="10347" width="3657" height="1905"/>
        <path fill="rgb(232,162,2)" stroke="none" d="M 7096,12019 L 7000,11789 10462,10348 10654,10810 7192,12250 7096,12019 Z"/>
        <path fill="none" stroke="rgb(232,162,2)" d="M 7096,12019 L 7000,11789 10462,10348 10654,10810 7192,12250 7096,12019 Z"/>
       </g>
      </g>
      <g class="com.sun.star.drawing.CustomShape">
       <g id="id14">
        <rect class="BoundingBox" stroke="none" fill="none" x="5212" y="14522" width="1329" height="1955"/>
        <path fill="rgb(129,212,26)" stroke="none" d="M 6476,15323 C 6525,15492 6546,15665 6536,15827 6526,15988 6486,16132 6420,16243 6353,16354 6263,16428 6157,16459 6052,16490 5935,16476 5819,16419 5703,16361 5592,16262 5497,16132 5401,16001 5325,15844 5275,15675 5226,15507 5205,15333 5215,15172 5225,15010 5265,14867 5332,14756 5398,14645 5489,14570 5594,14539 5699,14508 5816,14522 5932,14580 6048,14637 6159,14736 6255,14867 6350,14997 6426,15155 6476,15323 L 6476,15323 Z"/>
        <path fill="none" stroke="rgb(129,212,26)" d="M 6476,15323 C 6525,15492 6546,15665 6536,15827 6526,15988 6486,16132 6420,16243 6353,16354 6263,16428 6157,16459 6052,16490 5935,16476 5819,16419 5703,16361 5592,16262 5497,16132 5401,16001 5325,15844 5275,15675 5226,15507 5205,15333 5215,15172 5225,15010 5265,14867 5332,14756 5398,14645 5489,14570 5594,14539 5699,14508 5816,14522 5932,14580 6048,14637 6159,14736 6255,14867 6350,14997 6426,15155 6476,15323 L 6476,15323 Z"/>
       </g>
      </g>
      <g class="com.sun.star.drawing.CustomShape">
       <g id="id15">
        <rect class="BoundingBox" stroke="none" fill="none" x="5578" y="13863" width="2527" height="2528"/>
        <path fill="rgb(129,212,26)" stroke="none" d="M 7180,16050 L 6258,16389 5579,14542 7424,13864 8103,15711 7180,16050 Z"/>
        <path fill="none" stroke="rgb(129,212,26)" d="M 7180,16050 L 6258,16389 5579,14542 7424,13864 8103,15711 7180,16050 Z"/>
       </g>
      </g>
      <g class="com.sun.star.drawing.CustomShape">
       <g id="id16">
        <rect class="BoundingBox" stroke="none" fill="none" x="7499" y="12499" width="907" height="1583"/>
        <path fill="rgb(129,212,26)" stroke="none" d="M 7739,14009 L 7500,13938 7925,12500 8404,12642 7979,14080 7739,14009 Z"/>
        <path fill="none" stroke="rgb(129,212,26)" d="M 7739,14009 L 7500,13938 7925,12500 8404,12642 7979,14080 7739,14009 Z"/>
       </g>
      </g>
      <g class="com.sun.star.drawing.CustomShape">
       <g id="id17">
        <rect class="BoundingBox" stroke="none" fill="none" x="8109" y="13311" width="1392" height="1440"/>
        <path fill="rgb(129,212,26)" stroke="none" d="M 8293,14579 L 8110,14408 9134,13312 9499,13653 8475,14749 8293,14579 Z"/>
        <path fill="none" stroke="rgb(129,212,26)" d="M 8293,14579 L 8110,14408 9134,13312 9499,13653 8475,14749 8293,14579 Z"/>
       </g>
      </g>
      <g class="com.sun.star.drawing.CustomShape">
       <g id="id18">
        <rect class="BoundingBox" stroke="none" fill="none" x="8717" y="14644" width="1534" height="608"/>
        <path fill="rgb(129,212,26)" stroke="none" d="M 8735,15000 L 8718,14751 10214,14645 10249,15144 8753,15250 8735,15000 Z"/>
        <path fill="none" stroke="rgb(129,212,26)" d="M 8735,15000 L 8718,14751 10214,14645 10249,15144 8753,15250 8735,15000 Z"/>
       </g>
      </g>
      <g class="com.sun.star.drawing.CustomShape">
       <g id="id19">
        <rect class="BoundingBox" stroke="none" fill="none" x="8243" y="15249" width="1509" height="1293"/>
        <path fill="rgb(129,212,26)" stroke="none" d="M 8392,15452 L 8539,15250 9750,16136 9455,16540 8244,15654 8392,15452 Z"/>
        <path fill="none" stroke="rgb(129,212,26)" d="M 8392,15452 L 8539,15250 9750,16136 9455,16540 8244,15654 8392,15452 Z"/>
       </g>
      </g>
      <g class="com.sun.star.drawing.CustomShape">
       <g id="id20">
        <rect class="BoundingBox" stroke="none" fill="none" x="6749" y="13249" width="2253" height="3003"/>
        <path fill="rgb(129,212,26)" stroke="none" d="M 7875,16250 L 6750,16250 6750,13250 9000,13250 9000,16250 7875,16250 Z"/>
        <path fill="none" stroke="rgb(129,212,26)" d="M 7875,16250 L 6750,16250 6750,13250 9000,13250 9000,16250 7875,16250 Z"/>
       </g>
      </g>
      <g class="com.sun.star.drawing.CustomShape">
       <g id="id21">
        <rect class="BoundingBox" stroke="none" fill="none" x="8154" y="12243" width="1333" height="1519"/>
        <path fill="rgb(0,169,51)" stroke="none" d="M 9217,13307 C 9123,13429 9013,13534 8897,13613 8781,13692 8664,13741 8556,13755 8449,13770 8356,13749 8287,13696 8217,13642 8173,13558 8160,13450 8146,13343 8163,13217 8210,13085 8256,12952 8330,12819 8423,12697 8517,12575 8627,12469 8743,12390 8859,12312 8977,12263 9084,12248 9191,12234 9284,12254 9354,12308 9423,12361 9467,12446 9481,12553 9494,12660 9477,12787 9431,12919 9384,13051 9311,13185 9217,13307 L 9217,13307 Z"/>
        <path fill="none" stroke="rgb(0,169,51)" d="M 9217,13307 C 9123,13429 9013,13534 8897,13613 8781,13692 8664,13741 8556,13755 8449,13770 8356,13749 8287,13696 8217,13642 8173,13558 8160,13450 8146,13343 8163,13217 8210,13085 8256,12952 8330,12819 8423,12697 8517,12575 8627,12469 8743,12390 8859,12312 8977,12263 9084,12248 9191,12234 9284,12254 9354,12308 9423,12361 9467,12446 9481,12553 9494,12660 9477,12787 9431,12919 9384,13051 9311,13185 9217,13307 L 9217,13307 Z"/>
       </g>
      </g>
      <g class="com.sun.star.drawing.CustomShape">
       <g id="id22">
        <rect class="BoundingBox" stroke="none" fill="none" x="8694" y="13488" width="2629" height="1319"/>
        <path fill="rgb(0,169,51)" stroke="none" d="M 10173,14592 C 9945,14677 9712,14740 9500,14775 9287,14809 9102,14814 8962,14789 8823,14764 8734,14709 8705,14631 8676,14553 8708,14454 8797,14344 8886,14233 9030,14116 9213,14003 9397,13891 9614,13787 9843,13702 10071,13617 10304,13554 10516,13519 10729,13485 10914,13480 11054,13505 11193,13530 11282,13585 11311,13663 11340,13741 11308,13840 11219,13950 11130,14061 10986,14178 10803,14291 10619,14403 10402,14507 10173,14592 L 10173,14592 Z"/>
        <path fill="none" stroke="rgb(0,169,51)" d="M 10173,14592 C 9945,14677 9712,14740 9500,14775 9287,14809 9102,14814 8962,14789 8823,14764 8734,14709 8705,14631 8676,14553 8708,14454 8797,14344 8886,14233 9030,14116 9213,14003 9397,13891 9614,13787 9843,13702 10071,13617 10304,13554 10516,13519 10729,13485 10914,13480 11054,13505 11193,13530 11282,13585 11311,13663 11340,13741 11308,13840 11219,13950 11130,14061 10986,14178 10803,14291 10619,14403 10402,14507 10173,14592 Z"/>
       </g>
      </g>
      <g class="com.sun.star.drawing.CustomShape">
       <g id="id23">
        <rect class="BoundingBox" stroke="none" fill="none" x="8882" y="15037" width="2320" height="1241"/>
        <path fill="rgb(0,169,51)" stroke="none" d="M 9899,16195 C 9697,16142 9505,16064 9343,15970 9181,15877 9054,15770 8974,15662 8895,15553 8867,15446 8892,15352 8917,15257 8995,15178 9117,15123 9240,15068 9403,15039 9590,15038 9778,15037 9983,15065 10184,15119 10386,15172 10578,15250 10740,15343 10902,15437 11029,15543 11109,15652 11188,15761 11216,15868 11191,15962 11166,16057 11088,16135 10966,16190 10843,16245 10680,16275 10493,16276 10305,16277 10100,16249 9899,16195 L 9899,16195 Z"/>
        <path fill="none" stroke="rgb(0,169,51)" d="M 9899,16195 C 9697,16142 9505,16064 9343,15970 9181,15877 9054,15770 8974,15662 8895,15553 8867,15446 8892,15352 8917,15257 8995,15178 9117,15123 9240,15068 9403,15039 9590,15038 9778,15037 9983,15065 10184,15119 10386,15172 10578,15250 10740,15343 10902,15437 11029,15543 11109,15652 11188,15761 11216,15868 11191,15962 11166,16057 11088,16135 10966,16190 10843,16245 10680,16275 10493,16276 10305,16277 10100,16249 9899,16195 L 9899,16195 Z"/>
       </g>
      </g>
      <g class="com.sun.star.drawing.CustomShape">
       <g id="id24">
        <rect class="BoundingBox" stroke="none" fill="none" x="4655" y="12883" width="3066" height="1425"/>
        <path fill="rgb(161,70,126)" stroke="none" d="M 7710,13272 C 7739,13383 7697,13507 7589,13632 7481,13756 7309,13877 7092,13982 6876,14086 6621,14171 6353,14228 6086,14285 5816,14311 5570,14305 5324,14299 5111,14260 4952,14192 4793,14124 4694,14029 4665,13918 4636,13807 4678,13683 4786,13558 4894,13434 5066,13313 5283,13208 5499,13103 5754,13018 6022,12962 6289,12905 6559,12878 6805,12885 7051,12891 7264,12930 7423,12998 7582,13066 7681,13160 7710,13272 L 7710,13272 Z"/>
        <path fill="none" stroke="rgb(161,70,126)" d="M 7710,13272 C 7739,13383 7697,13507 7589,13632 7481,13756 7309,13877 7092,13982 6876,14086 6621,14171 6353,14228 6086,14285 5816,14311 5570,14305 5324,14299 5111,14260 4952,14192 4793,14124 4694,14029 4665,13918 4636,13807 4678,13683 4786,13558 4894,13434 5066,13313 5283,13208 5499,13103 5754,13018 6022,12962 6289,12905 6559,12878 6805,12885 7051,12891 7264,12930 7423,12998 7582,13066 7681,13160 7710,13272 Z"/>
       </g>
      </g>
      <g class="com.sun.star.drawing.CustomShape">
       <g id="id25">
        <rect class="BoundingBox" stroke="none" fill="none" x="6435" y="15999" width="2804" height="1004"/>
        <path fill="rgb(161,70,126)" stroke="none" d="M 9237,16501 C 9240,16588 9177,16675 9057,16751 8936,16827 8761,16890 8549,16934 8337,16978 8097,17001 7851,17001 7605,17001 7363,16978 7149,16934 6934,16890 6756,16827 6631,16751 6506,16675 6439,16588 6436,16501 6434,16413 6496,16326 6617,16250 6737,16174 6912,16111 7124,16067 7336,16023 7576,16000 7822,16000 8068,16000 8310,16023 8524,16067 8739,16111 8917,16174 9042,16250 9167,16326 9235,16413 9237,16501 L 9237,16501 Z"/>
        <path fill="none" stroke="rgb(161,70,126)" d="M 9237,16501 C 9240,16588 9177,16675 9057,16751 8936,16827 8761,16890 8549,16934 8337,16978 8097,17001 7851,17001 7605,17001 7363,16978 7149,16934 6934,16890 6756,16827 6631,16751 6506,16675 6439,16588 6436,16501 6434,16413 6496,16326 6617,16250 6737,16174 6912,16111 7124,16067 7336,16023 7576,16000 7822,16000 8068,16000 8310,16023 8524,16067 8739,16111 8917,16174 9042,16250 9167,16326 9235,16413 9237,16501 Z"/>
       </g>
      </g>
      <g class="com.sun.star.drawing.CustomShape">
       <g id="id26">
        <rect class="BoundingBox" stroke="none" fill="none" x="9999" y="13999" width="2004" height="1504"/>
        <path fill="rgb(0,169,51)" stroke="none" d="M 12001,14751 C 12001,14882 11955,15012 11867,15126 11779,15240 11653,15335 11501,15400 11349,15466 11176,15501 11001,15501 10825,15501 10652,15466 10500,15400 10348,15335 10222,15240 10134,15126 10046,15012 10000,14882 10000,14751 10000,14619 10046,14489 10134,14375 10222,14261 10348,14166 10500,14101 10652,14035 10825,14000 11001,14000 11176,14000 11349,14035 11501,14101 11653,14166 11779,14261 11867,14375 11955,14489 12001,14619 12001,14751 L 12001,14751 Z"/>
        <path fill="none" stroke="rgb(0,169,51)" d="M 12001,14751 C 12001,14882 11955,15012 11867,15126 11779,15240 11653,15335 11501,15400 11349,15466 11176,15501 11001,15501 10825,15501 10652,15466 10500,15400 10348,15335 10222,15240 10134,15126 10046,15012 10000,14882 10000,14751 10000,14619 10046,14489 10134,14375 10222,14261 10348,14166 10500,14101 10652,14035 10825,14000 11001,14000 11176,14000 11349,14035 11501,14101 11653,14166 11779,14261 11867,14375 11955,14489 12001,14619 12001,14751 Z"/>
       </g>
      </g>
      <g class="com.sun.star.drawing.CustomShape">
       <g id="id27">
        <rect class="BoundingBox" stroke="none" fill="none" x="9999" y="14999" width="1504" height="1754"/>
        <path fill="rgb(0,169,51)" stroke="none" d="M 11501,15876 C 11501,16029 11466,16180 11400,16313 11335,16446 11240,16557 11126,16634 11012,16711 10882,16751 10751,16751 10619,16751 10489,16711 10375,16634 10261,16557 10166,16446 10101,16313 10035,16180 10000,16029 10000,15876 10000,15722 10035,15571 10101,15438 10166,15305 10261,15194 10375,15117 10489,15040 10619,15000 10751,15000 10882,15000 11012,15040 11126,15117 11240,15194 11335,15305 11400,15438 11466,15571 11501,15722 11501,15876 L 11501,15876 Z"/>
        <path fill="none" stroke="rgb(0,169,51)" d="M 11501,15876 C 11501,16029 11466,16180 11400,16313 11335,16446 11240,16557 11126,16634 11012,16711 10882,16751 10751,16751 10619,16751 10489,16711 10375,16634 10261,16557 10166,16446 10101,16313 10035,16180 10000,16029 10000,15876 10000,15722 10035,15571 10101,15438 10166,15305 10261,15194 10375,15117 10489,15040 10619,15000 10751,15000 10882,15000 11012,15040 11126,15117 11240,15194 11335,15305 11400,15438 11466,15571 11501,15722 11501,15876 Z"/>
       </g>
      </g>
      <g class="com.sun.star.drawing.CustomShape">
       <g id="id28">
        <rect class="BoundingBox" stroke="none" fill="none" x="8999" y="15999" width="1504" height="1254"/>
        <path fill="rgb(0,169,51)" stroke="none" d="M 10501,16626 C 10501,16735 10466,16843 10400,16938 10335,17033 10240,17112 10126,17167 10012,17222 9882,17251 9751,17251 9619,17251 9489,17222 9375,17167 9261,17112 9166,17033 9101,16938 9035,16843 9000,16735 9000,16626 9000,16516 9035,16408 9101,16313 9166,16218 9261,16139 9375,16084 9489,16029 9619,16000 9751,16000 9882,16000 10012,16029 10126,16084 10240,16139 10335,16218 10400,16313 10466,16408 10501,16516 10501,16626 L 10501,16626 Z"/>
        <path fill="none" stroke="rgb(0,169,51)" d="M 10501,16626 C 10501,16735 10466,16843 10400,16938 10335,17033 10240,17112 10126,17167 10012,17222 9882,17251 9751,17251 9619,17251 9489,17222 9375,17167 9261,17112 9166,17033 9101,16938 9035,16843 9000,16735 9000,16626 9000,16516 9035,16408 9101,16313 9166,16218 9261,16139 9375,16084 9489,16029 9619,16000 9751,16000 9882,16000 10012,16029 10126,16084 10240,16139 10335,16218 10400,16313 10466,16408 10501,16516 10501,16626 Z"/>
       </g>
      </g>
      <g class="com.sun.star.drawing.CustomShape">
       <g id="id29">
        <rect class="BoundingBox" stroke="none" fill="none" x="8999" y="12499" width="2004" height="1754"/>
        <path fill="rgb(0,169,51)" stroke="none" d="M 11001,13376 C 11001,13529 10955,13680 10867,13813 10779,13946 10653,14057 10501,14134 10349,14211 10176,14251 10001,14251 9825,14251 9652,14211 9500,14134 9348,14057 9222,13946 9134,13813 9046,13680 9000,13529 9000,13376 9000,13222 9046,13071 9134,12938 9222,12805 9348,12694 9500,12617 9652,12540 9825,12500 10001,12500 10176,12500 10349,12540 10501,12617 10653,12694 10779,12805 10867,12938 10955,13071 11001,13222 11001,13375 L 11001,13376 Z"/>
        <path fill="none" stroke="rgb(0,169,51)" d="M 11001,13376 C 11001,13529 10955,13680 10867,13813 10779,13946 10653,14057 10501,14134 10349,14211 10176,14251 10001,14251 9825,14251 9652,14211 9500,14134 9348,14057 9222,13946 9134,13813 9046,13680 9000,13529 9000,13376 9000,13222 9046,13071 9134,12938 9222,12805 9348,12694 9500,12617 9652,12540 9825,12500 10001,12500 10176,12500 10349,12540 10501,12617 10653,12694 10779,12805 10867,12938 10955,13071 11001,13222 11001,13375 L 11001,13376 Z"/>
       </g>
      </g>
      <g class="com.sun.star.drawing.CustomShape">
       <g id="id30">
        <rect class="BoundingBox" stroke="none" fill="none" x="6499" y="12499" width="1254" height="1504"/>
        <path fill="rgb(0,169,51)" stroke="none" d="M 7751,13251 C 7751,13382 7722,13512 7667,13626 7612,13740 7533,13835 7438,13900 7343,13966 7235,14001 7126,14001 7016,14001 6908,13966 6813,13900 6718,13835 6639,13740 6584,13626 6529,13512 6500,13382 6500,13251 6500,13119 6529,12989 6584,12875 6639,12761 6718,12666 6813,12601 6908,12535 7016,12500 7125,12500 7235,12500 7343,12535 7438,12601 7533,12666 7612,12761 7667,12875 7722,12989 7751,13119 7751,13251 L 7751,13251 Z"/>
        <path fill="none" stroke="rgb(0,169,51)" d="M 7751,13251 C 7751,13382 7722,13512 7667,13626 7612,13740 7533,13835 7438,13900 7343,13966 7235,14001 7126,14001 7016,14001 6908,13966 6813,13900 6718,13835 6639,13740 6584,13626 6529,13512 6500,13382 6500,13251 6500,13119 6529,12989 6584,12875 6639,12761 6718,12666 6813,12601 6908,12535 7016,12500 7125,12500 7235,12500 7343,12535 7438,12601 7533,12666 7612,12761 7667,12875 7722,12989 7751,13119 7751,13251 Z"/>
       </g>
      </g>
      <g class="com.sun.star.drawing.CustomShape">
       <g id="id31">
        <rect class="BoundingBox" stroke="none" fill="none" x="8249" y="11749" width="1504" height="1504"/>
        <path fill="rgb(0,169,51)" stroke="none" d="M 9751,12500 C 9751,12632 9716,12762 9650,12876 9585,12990 9490,13085 9376,13150 9262,13216 9132,13251 9001,13251 8869,13251 8739,13216 8625,13150 8511,13085 8416,12990 8351,12876 8285,12762 8250,12632 8250,12500 8250,12369 8285,12239 8351,12125 8416,12011 8511,11916 8625,11851 8739,11785 8869,11750 9001,11750 9132,11750 9262,11785 9376,11851 9490,11916 9585,12011 9650,12125 9716,12239 9751,12369 9751,12500 L 9751,12500 Z"/>
        <path fill="none" stroke="rgb(0,169,51)" d="M 9751,12500 C 9751,12632 9716,12762 9650,12876 9585,12990 9490,13085 9376,13150 9262,13216 9132,13251 9001,13251 8869,13251 8739,13216 8625,13150 8511,13085 8416,12990 8351,12876 8285,12762 8250,12632 8250,12500 8250,12369 8285,12239 8351,12125 8416,12011 8511,11916 8625,11851 8739,11785 8869,11750 9001,11750 9132,11750 9262,11785 9376,11851 9490,11916 9585,12011 9650,12125 9716,12239 9751,12369 9751,12500 Z"/>
       </g>
      </g>
      <g class="com.sun.star.drawing.CustomShape">
       <g id="id32">
        <rect class="BoundingBox" stroke="none" fill="none" x="6999" y="11749" width="1754" height="1254"/>
        <path fill="rgb(0,169,51)" stroke="none" d="M 8751,12375 C 8751,12485 8711,12593 8634,12688 8557,12783 8446,12862 8313,12917 8180,12972 8029,13001 7876,13001 7722,13001 7571,12972 7438,12917 7305,12862 7194,12783 7117,12688 7040,12593 7000,12485 7000,12375 7000,12266 7040,12158 7117,12063 7194,11968 7305,11889 7438,11834 7571,11779 7722,11750 7876,11750 8029,11750 8180,11779 8313,11834 8446,11889 8557,11968 8634,12063 8711,12158 8751,12266 8751,12375 L 8751,12375 Z"/>
        <path fill="none" stroke="rgb(0,169,51)" d="M 8751,12375 C 8751,12485 8711,12593 8634,12688 8557,12783 8446,12862 8313,12917 8180,12972 8029,13001 7876,13001 7722,13001 7571,12972 7438,12917 7305,12862 7194,12783 7117,12688 7040,12593 7000,12485 7000,12375 7000,12266 7040,12158 7117,12063 7194,11968 7305,11889 7438,11834 7571,11779 7722,11750 7876,11750 8029,11750 8180,11779 8313,11834 8446,11889 8557,11968 8634,12063 8711,12158 8751,12266 8751,12375 Z"/>
       </g>
      </g>
      <g class="com.sun.star.drawing.CustomShape">
       <g id="id33">
        <rect class="BoundingBox" stroke="none" fill="none" x="-2251" y="-751" width="25503" height="7753"/>
        <path fill="rgb(180,199,220)" stroke="none" d="M 10500,7000 L -2250,7000 -2250,-750 23250,-750 23250,7000 10500,7000 Z"/>
        <path fill="none" stroke="rgb(180,199,220)" d="M 10500,7000 L -2250,7000 -2250,-750 23250,-750 23250,7000 10500,7000 Z"/>
       </g>
      </g>
     </g>
    </g>
   </g>
  </g>
 </g>
</svg>